<svg width="24" height="24" viewBox="0 0 24 24" fill="none" xmlns="http://www.w3.org/2000/svg">
<path fill-rule="evenodd" clip-rule="evenodd" d="M6.79303 6.79299C6.98056 6.60552 7.23487 6.5002 7.50003 6.5002C7.76519 6.5002 8.0195 6.60552 8.20703 6.79299L12 10.586L15.793 6.79299C15.8853 6.69748 15.9956 6.6213 16.1176 6.56889C16.2396 6.51648 16.3709 6.48889 16.5036 6.48774C16.6364 6.48659 16.7681 6.51189 16.891 6.56217C17.0139 6.61245 17.1255 6.6867 17.2194 6.78059C17.3133 6.87449 17.3876 6.98614 17.4379 7.10904C17.4881 7.23193 17.5134 7.36361 17.5123 7.49639C17.5111 7.62917 17.4835 7.76039 17.4311 7.88239C17.3787 8.0044 17.3025 8.11474 17.207 8.20699L13.414 12L17.207 15.793C17.3892 15.9816 17.49 16.2342 17.4877 16.4964C17.4854 16.7586 17.3803 17.0094 17.1948 17.1948C17.0094 17.3802 16.7586 17.4854 16.4964 17.4877C16.2342 17.4899 15.9816 17.3891 15.793 17.207L12 13.414L8.20703 17.207C8.01843 17.3891 7.76583 17.4899 7.50363 17.4877C7.24143 17.4854 6.99062 17.3802 6.80521 17.1948C6.6198 17.0094 6.51463 16.7586 6.51236 16.4964C6.51008 16.2342 6.61087 15.9816 6.79303 15.793L10.586 12L6.79303 8.20699C6.60556 8.01946 6.50024 7.76515 6.50024 7.49999C6.50024 7.23483 6.60556 6.98052 6.79303 6.79299Z" fill="black"/>
</svg>
